<?xml version="1.0" encoding="UTF-8"?>
<!DOCTYPE svg PUBLIC "-//W3C//DTD SVG 1.1//EN" "http://www.w3.org/Graphics/SVG/1.1/DTD/svg11.dtd">
<!-- Creator: CorelDRAW 2017 -->
<svg xmlns="http://www.w3.org/2000/svg" xml:space="preserve" width="237mm" height="230mm" version="1.1" style="shape-rendering:geometricPrecision; text-rendering:geometricPrecision; image-rendering:optimizeQuality; fill-rule:evenodd; clip-rule:evenodd"
viewBox="0 0 23700 23000"
 xmlns:xlink="http://www.w3.org/1999/xlink">
 <defs>
  <style type="text/css">
   <![CDATA[
    .str0 {stroke:#442916;stroke-width:700}
    .str4 {stroke:#FEFEFE;stroke-width:20}
    .str2 {stroke:#271708;stroke-width:20}
    .str3 {stroke:#FCFFF8;stroke-width:20}
    .str1 {stroke:#0F8E4D;stroke-width:500;stroke-linecap:round}
    .fil1 {fill:none}
    .fil0 {fill:#FEFEFE}
    .fil5 {fill:#422915}
    .fil3 {fill:#51A60B}
    .fil6 {fill:#FAF3ED}
    .fil7 {fill:#FCFFF8}
    .fil2 {fill:white}
    .fil4 {fill:#0F8E4D;fill-rule:nonzero}
   ]]>
  </style>
 </defs>
 <g id="Capa_x0020_1">
  <metadata id="CorelCorpID_0Corel-Layer"/>
  <g id="_1821264107424">
   <path class="fil0" d="M14724 1601l812 -201c835,-658 2023,-925 3505,-866 218,966 -29,1971 -352,2972l-3965 582 0 -2487z"/>
   <circle class="fil0" cx="11850" cy="11500" r="10830"/>
   <path class="fil1 str0" d="M9305 20151l1231 -1160 2655 0 1209 1160c3137,-1717 4598,-4605 4598,-6687l0 -7599 -7124 -2554 -7172 2554 0 7599c174,3567 3112,6045 4603,6687z"/>
   <g>
    <path class="fil2" d="M15507 3052c18,-352 112,-693 322,-992 513,-730 1514,-925 2347,-969l356 -19 -16 356c-66,1454 -689,2528 -2176,2683 -236,352 -348,800 -403,1212 19,664 -67,1308 -302,1932 -195,517 -475,971 -802,1413 -619,838 -1460,1436 -2157,2195l-11 11 -12 10c-800,718 -1598,1600 -2010,2607 -291,711 -361,1421 -232,2174 153,540 459,1034 746,1511 133,222 131,529 -113,676 -205,124 -440,40 -587,-131 -175,-203 -567,-659 -844,-735 -2712,-170 -3983,-1811 -4207,-4422l-31 -357 359 7c1496,30 2715,482 3647,1544 173,-765 485,-1471 1005,-2099 443,-534 932,-1033 1429,-1516 559,-543 1132,-1072 1696,-1610 781,-744 1113,-1349 1388,-2389 80,-301 96,-854 -56,-1179 -1621,-254 -2178,-1385 -2255,-2949l-19 -394 390 60c620,95 1420,235 1938,614 300,219 491,472 608,754z"/>
   </g>
   <path class="fil3" d="M12912 2004c965,148 1464,312 1797,555 561,410 679,952 640,1811 -1,156 42,276 119,367 249,-935 960,-1691 1730,-2423 -539,224 -952,701 -1347,1214 -185,-1385 685,-2027 2342,-2116 -67,1475 -708,2310 -2027,2388 -274,344 -467,831 -554,1506 49,1462 -451,2372 -1040,3169 -604,817 -1441,1413 -2135,2169 -2198,1973 -2603,3598 -2341,5093 159,575 470,1083 784,1606 121,201 -32,339 -178,169 -355,-413 -707,-774 -1041,-845 -2597,-152 -3725,-1703 -3933,-4130 1513,31 2868,501 3848,2015 111,-984 402,-1902 1059,-2686 817,-997 1892,-1949 3099,-3098 821,-782 1182,-1431 1478,-2540 94,-364 137,-1142 -171,-1560 -1637,-191 -2062,-1294 -2129,-2666z"/>
   <path class="fil4" d="M9950 20700c0,-145 29,-274 88,-388 59,-113 143,-201 252,-264 109,-63 238,-94 386,-94 127,0 241,24 341,72 100,48 182,115 245,202 63,87 105,189 125,305l-485 0c-22,-48 -54,-86 -94,-113 -41,-27 -87,-40 -140,-40 -77,0 -139,29 -183,87 -45,58 -67,136 -67,234 0,98 22,176 67,234 45,58 106,87 183,87 53,0 99,-13 140,-40 41,-27 72,-65 94,-113l485 0c-21,116 -63,218 -125,305 -63,87 -144,154 -245,202 -100,48 -214,72 -341,72 -148,0 -276,-31 -386,-94 -109,-63 -193,-151 -252,-264 -59,-113 -88,-242 -88,-388z"/>
   <path id="1" class="fil4" d="M12268 21451c-138,0 -265,-32 -380,-97 -115,-65 -207,-155 -275,-269 -68,-115 -102,-244 -102,-388 0,-144 34,-273 102,-388 68,-115 159,-204 275,-268 115,-64 242,-96 380,-96 138,0 265,32 379,96 115,64 206,154 273,268 67,115 101,244 101,388 0,144 -34,273 -101,388 -67,115 -158,205 -274,269 -115,65 -241,97 -378,97zm0 -429c91,0 162,-29 211,-88 50,-59 75,-138 75,-237 0,-101 -25,-181 -75,-239 -50,-59 -120,-88 -211,-88 -93,0 -164,29 -213,88 -50,59 -75,139 -75,239 0,99 25,179 75,237 50,59 121,88 213,88z"/>
   <path class="fil4" d="M13144 21698c99,-83 179,-152 238,-208 59,-55 108,-113 148,-173 39,-60 59,-119 59,-177 0,-53 -12,-94 -37,-124 -25,-30 -63,-45 -115,-45 -52,0 -92,17 -120,52 -28,35 -42,82 -44,142l-211 0c4,-124 41,-219 111,-283 70,-64 159,-96 267,-96 118,0 209,31 272,94 63,63 95,145 95,248 0,81 -22,158 -65,232 -44,74 -93,138 -149,192 -56,54 -129,120 -219,197l459 0 0 180 -768 0 0 -162 81 -68z"/>
   <polyline class="fil1 str1" points="11194,18080 11895,17491 12586,18080 "/>
   <line class="fil1 str1" x1="11874" y1="17545" x2="11874" y2= "19542" />
   <path class="fil5 str2" d="M14635 6448c-372,-327 -977,-1023 -2356,-1182 1079,1258 756,2893 405,3821 748,-688 1670,-1695 1951,-2639z"/>
   <path class="fil5 str2" d="M9305 13330c-433,-348 -1044,-772 -1800,-996 -136,-1149 -109,-2649 345,-3942 542,-1544 1656,-2811 3322,-3085 838,-138 1248,1063 1276,2360 -34,1050 -543,2003 -1383,2888 -726,689 -1322,1597 -1760,2776z"/>
   <path class="fil6 str2" d="M11133 5911c-2150,358 -3258,3102 -3081,4733 455,-2506 1585,-3755 3081,-4733z"/>
   <path class="fil5 str2" d="M12030 16938c1521,-111 2613,-952 3445,-2415 1028,-1806 1278,-4954 137,-6712 -397,559 -806,1279 -1464,1939 -842,844 -1840,1701 -2642,2584 -710,1009 -861,1330 -972,2580 -128,1447 932,2102 1495,2024z"/>
   <path class="fil7 str3" d="M6175 12987c1834,143 3068,1136 3487,2928 -777,-622 -1557,-1399 -2434,-1913 539,647 1456,1481 2191,2213 -341,-33 -480,-59 -742,-132 -1039,-288 -2101,-734 -2501,-3096z"/>
   <path class="fil0 str4" d="M13230 2361c1238,130 1789,674 1811,1538 -401,-458 -783,-819 -1112,-888 361,404 674,837 942,1298 -518,-89 -1043,-331 -1342,-857 -166,-291 -303,-627 -299,-1091z"/>
  </g>
 </g>
</svg>
